# xmcd
#
# Track frame offsets:
#       150
#       15346
#       35460
#       57617
#       78085
#       97156
#       115746
#       132157
#       151698
#       169774
#
# Disc length: 2483 seconds
#
# Revision: 0
# Processed by: cddbd v1.5.2PL0 Copyright (c) Steve Scherf et al.
# Submitted via: WaveLab 4.01
#
DISCID=7109b10a
DTITLE=Lucio Dalla - Angoli nel cielo
DYEAR=2009
DGENRE=Italian Country
TTITLE0=Angoli nel cielo
TTITLE1=Questo Amore
TTITLE2=Puoi sentirmi
TTITLE3=La lucciola
TTITLE4=Broadway
TTITLE5=Vorrei sapere chi e
TTITLE6=Cosa mi dai
TTITLE7=Gli anni non aspettano
TTITLE8=Fiuto (con Toni Servillo)
TTITLE9=Controvento
EXTD=
EXTT0=
EXTT1=
EXTT2=
EXTT3=
EXTT4=
EXTT5=
EXTT6=
EXTT7=
EXTT8=
EXTT9=
PLAYORDER=
